<svg
      xmlns="http://www.w3.org/2000/svg"
      xmlnsSvgjs="http://svgjs.dev/svgjs"
      xmlnsXlink="http://www.w3.org/1999/xlink"
      width="2000"
      height="601"
      viewBox="0 0 2000 601"
    >
      <svg
        xmlns="http://www.w3.org/2000/svg"
        xmlnsXlink="http://www.w3.org/1999/xlink"
        width="2000"
        height="601"
        data-background-color="#ffffff"
        transform="translate(-1.212 -.31)"
        viewBox="0 0 396 119"
      >
        <svg
          width="395.52"
          height="118.877"
          transform="translate(.24 .062)"
          viewBox="0 0 395.52 118.877"
        >
          <svg width="395.52" height="118.877" viewBox="0 0 588.275 176.811">
            <svg
              width="395.52"
              height="67.537"
              transform="translate(192.755 54.637)"
              viewBox="0 0 395.52 67.537"
            >
              <g>
                <svg width="395.52" height="67.537" viewBox="0 0 395.52 67.537">
                  <svg
                    width="395.52"
                    height="67.537"
                    viewBox="0 0 395.52 67.537"
                  >
                    <svg
                      width="395.52"
                      height="67.537"
                      data-palette-color="#374151"
                      viewBox="0.8 -36.95 218.13 37.25"
                    >
                      <path
                        fill="#fff"
                        d="M14.9 0h-2.05v-34.8H.8v-1.85h26.15v1.85H14.9V0zm23.75.15q-1.25 0-2.5-.2t-2.3-.85q-1.05-.65-1.7-1.98-.65-1.32-.65-3.52v-23.5q0-1.9.55-3.23.55-1.32 1.5-2.1.95-.77 2.12-1.1 1.18-.32 2.43-.32 2.65.05 5.17.1 2.53.05 4.98.12 2.45.08 4.85.13v1.55H38.4q-2.2 0-3.53 1.2-1.32 1.2-1.32 3.85v10.6l17.5.15v1.5l-17.5.2v10.6q0 2.2.75 3.25.75 1.05 1.97 1.35 1.23.3 2.53.3h14.3V-.2q-2.35.1-4.78.15l-4.85.1-4.82.1zM72.4.3q-3.4 0-5.83-.75t-3.95-2.73q-1.53-1.97-2.25-5.65-.72-3.67-.72-9.62 0-5.5.72-9.13.72-3.62 2.3-5.65 1.58-2.02 4.08-2.87 2.5-.85 6-.85 1.05 0 2.77.15 1.73.15 3.65.37 1.92.23 3.63.58v1.45q-.85-.15-2.43-.3-1.57-.15-3.57-.28-2-.12-3.96-.12-3 0-5.14.7-2.15.7-3.48 2.52-1.32 1.83-1.92 5.08-.6 3.25-.6 8.4 0 5.35.6 8.7.6 3.35 1.9 5.12 1.3 1.78 3.37 2.4 2.08.63 5.08.63 3.75 0 6.17-.23 2.43-.22 3.98-.47v1.5q-1.65.3-3.53.55-1.87.25-3.68.38Q73.8.3 72.4.3zM91.49 0h-2.05v-36.65h2.05v17.95h20.9v-17.95h2.05V0h-2.05v-16.85h-20.9V0zm34.35 0h-2.05v-36.65h1.75L146.79-3.6v-33.05h2.05V0h-1.75l-21.25-33.05V0zm32.6 0h-2.05v-36.65h2.05V0zm10.5 0h-2.05v-29.9q0-1.9.55-3.23.55-1.32 1.5-2.1.95-.77 2.12-1.1 1.18-.32 2.43-.32 2.4.05 4.9.1l5.05.1q2.55.05 5.05.15v1.55h-14.75q-2.2 0-3.5 1.23-1.3 1.22-1.3 3.82v11.3l17.5.2v1.5l-17.5.15V0zm37.99 0h-2.05v-12.75l-12-23.9h2.15l10.9 21.85 10.85-21.85h2.15l-12 23.9V0z"
                        className="undefined-text-0"
                        data-fill-palette-color="primary"
                        opacity="1"
                      ></path>
                    </svg>
                  </svg>
                </svg>
              </g>
            </svg>
            <svg width="176.811" height="176.811" viewBox="0 0 176.811 176.811">
              <svg
                xmlns="http://www.w3.org/2000/svg"
                width="176.811"
                height="176.811"
                x="0"
                y="0"
                className="icon-icon-0"
                data-fill-palette-color="accent"
                version="1.1"
                viewBox="8.883 8.883 82.235 82.235"
                xmlSpace="preserve"
              >
                <g fill="#374151" data-fill-palette-color="accent">
                  <path
                    fill="none"
                    d="M62.873 41.245L58.475 48.867 41.526 48.867 37.126 41.245 27.018 41.245 21.963 50 27.018 58.754 37.126 58.754 41.526 51.133 58.475 51.133 62.873 58.754 72.982 58.754 78.037 50 72.982 41.245z"
                  ></path>
                  <path
                    fill="#fff"
                    d="M87.1 40.302l-3.945-3.946H62.65l-6.041 10.462H43.39l-6.609-11.447 6.609-11.448h13.219l6.041 10.462h18.533L59.697 12.9A13.626 13.626 0 0050 8.883a13.621 13.621 0 00-9.698 4.017L12.9 40.302a13.625 13.625 0 00-4.017 9.697c0 3.665 1.427 7.106 4.017 9.698l4.338 4.338H37.35l6.04-10.461h13.219l6.609 11.447-6.609 11.449H43.39l-6.04-10.465H19.209L40.302 87.1A13.626 13.626 0 0050 91.118a13.63 13.63 0 009.697-4.018L87.1 59.697a13.631 13.631 0 004.018-9.698 13.636 13.636 0 00-4.018-9.697zM72.982 58.754H62.873l-4.398-7.621H41.526l-4.399 7.621H27.018L21.963 50l5.054-8.754h10.109l4.399 7.622h16.949l4.398-7.622h10.109L78.037 50l-5.055 8.754z"
                    data-fill-palette-color="accent"
                  ></path>
                  <path
                    fill="#fff"
                    d="M54.563 72.924L59.125 65.021 54.563 57.121 45.438 57.121 40.876 65.021 45.438 72.924z"
                    data-fill-palette-color="accent"
                  ></path>
                  <path
                    fill="#fff"
                    d="M45.438 27.469L40.876 35.371 45.438 43.272 54.563 43.272 59.125 35.371 54.563 27.469z"
                    data-fill-palette-color="accent"
                  ></path>
                </g>
              </svg>
            </svg>
          </svg>
        </svg>
      </svg>
    </svg>